<?xml version="1.0" standalone="no"?>
<!DOCTYPE svg PUBLIC "-//W3C//DTD SVG 20010904//EN"
 "http://www.w3.org/TR/2001/REC-SVG-20010904/DTD/svg10.dtd">
<svg version="1.0" xmlns="http://www.w3.org/2000/svg"
 width="260.000000pt" height="260.000000pt" viewBox="0 0 260.000000 260.000000"
 preserveAspectRatio="xMidYMid meet">
<metadata>
Created by potrace 1.14, written by Peter Selinger 2001-2017
</metadata>
<g transform="translate(0.000000,260.000000) scale(0.100000,-0.100000)"
fill="#000000" stroke="none">
<path d="M0 1300 l0 -1300 1300 0 1300 0 0 1300 0 1300 -1300 0 -1300 0 0
-1300z m874 562 c169 -79 258 -256 243 -486 -12 -198 -97 -335 -252 -407 -119
-56 -300 -49 -410 15 -129 77 -202 209 -212 386 -14 264 104 455 318 515 36
10 85 14 150 12 83 -3 106 -8 163 -35z m1169 15 c37 -16 37 -16 37 -76 l0 -60
-57 26 c-67 31 -175 41 -242 23 -26 -7 -59 -26 -78 -45 -29 -29 -33 -39 -33
-89 0 -52 3 -59 38 -93 21 -21 93 -67 162 -103 152 -79 212 -134 236 -216 36
-126 -29 -245 -161 -291 -72 -26 -259 -24 -335 3 l-55 19 -3 69 -3 68 28 -20
c79 -56 278 -78 351 -39 90 49 95 175 9 240 -18 13 -85 52 -149 86 -65 35
-135 79 -157 97 -95 82 -109 222 -30 317 33 40 104 81 166 97 57 14 231 6 276
-13z m-668 -262 c14 -13 25 -36 25 -50 0 -33 -41 -75 -73 -75 -41 0 -71 32
-71 75 0 69 71 99 119 50z m0 -560 c14 -13 25 -36 25 -50 0 -33 -41 -75 -73
-75 -41 0 -71 32 -71 75 0 69 71 99 119 50z"/>
<path d="M578 1784 c-68 -21 -148 -98 -184 -176 -24 -54 -29 -79 -32 -170 -3
-88 0 -119 17 -175 42 -139 142 -222 275 -231 112 -7 175 15 247 87 75 76 99
146 99 295 0 154 -39 258 -123 326 -68 55 -200 75 -299 44z"/>
</g>
</svg>
